<svg width="41" height="41" viewBox="0 0 41 41" fill="none" xmlns="http://www.w3.org/2000/svg">
<path d="M20.5 0.59375C9.524 0.59375 0.59375 9.524 0.59375 20.5C0.59375 31.476 9.524 40.4062 20.5 40.4062C31.476 40.4062 40.4062 31.476 40.4062 20.5C40.4062 9.524 31.476 0.59375 20.5 0.59375ZM20.5 3.65625C29.8207 3.65625 37.3438 11.1793 37.3438 20.5C37.3438 29.8207 29.8207 37.3438 20.5 37.3438C11.1793 37.3438 3.65625 29.8207 3.65625 20.5C3.65625 11.1793 11.1793 3.65625 20.5 3.65625ZM20.5 9.58984L19.3975 10.6923L10.6908 19.399L12.8438 21.6025L18.9688 15.4775V31.2188H22.0312V15.4775L28.1562 21.6025L30.3092 19.3975L21.601 10.6908L20.4985 9.58831L20.5 9.58984Z" fill="#FD582B"/>
</svg>
