<svg width="44" height="64" viewBox="0 0 44 64" fill="none" xmlns="http://www.w3.org/2000/svg">
<g clip-path="url(#clip0_547_534)">
<path d="M22.2002 32C22.2002 29.1711 23.324 26.458 25.3244 24.4576C27.3248 22.4572 30.0379 21.3334 32.8669 21.3334C35.6958 21.3334 38.4089 22.4572 40.4093 24.4576C42.4097 26.458 43.5335 29.1711 43.5335 32C43.5335 34.829 42.4097 37.5421 40.4093 39.5425C38.4089 41.5429 35.6958 42.6667 32.8669 42.6667C30.0379 42.6667 27.3248 41.5429 25.3244 39.5425C23.324 37.5421 22.2002 34.829 22.2002 32Z" fill="#1ABCFE"/>
<path d="M0.867188 53.3333C0.867188 50.5043 1.99099 47.7912 3.99138 45.7908C5.99177 43.7904 8.70488 42.6666 11.5339 42.6666H22.2005V53.3333C22.2005 56.1623 21.0767 58.8754 19.0763 60.8758C17.0759 62.8762 14.3628 64 11.5339 64C8.70488 64 5.99177 62.8762 3.99138 60.8758C1.99099 58.8754 0.867188 56.1623 0.867188 53.3333Z" fill="#0ACF83"/>
<path d="M22.2002 0V21.3333H32.8669C35.6958 21.3333 38.4089 20.2095 40.4093 18.2091C42.4097 16.2088 43.5335 13.4956 43.5335 10.6667C43.5335 7.83769 42.4097 5.12458 40.4093 3.12419C38.4089 1.12381 35.6958 0 32.8669 0L22.2002 0Z" fill="#FF7262"/>
<path d="M0.867188 10.6667C0.867188 13.4956 1.99099 16.2088 3.99138 18.2091C5.99177 20.2095 8.70488 21.3333 11.5339 21.3333H22.2005V0H11.5339C8.70488 0 5.99177 1.12381 3.99138 3.12419C1.99099 5.12458 0.867188 7.83769 0.867188 10.6667Z" fill="#F24E1E"/>
<path d="M0.867188 32C0.867188 34.829 1.99099 37.5421 3.99138 39.5425C5.99177 41.5429 8.70488 42.6667 11.5339 42.6667H22.2005V21.3334H11.5339C8.70488 21.3334 5.99177 22.4572 3.99138 24.4576C1.99099 26.458 0.867188 29.1711 0.867188 32Z" fill="#A259FF"/>
</g>
<defs>
<clipPath id="clip0_547_534">
<rect width="42.6667" height="64" fill="white" transform="translate(0.867188)"/>
</clipPath>
</defs>
</svg>
