<svg width="52" height="52" viewBox="0 0 52 52" fill="none" xmlns="http://www.w3.org/2000/svg">
<path d="M50.267 23.4666L28.5337 1.73329C27.867 1.06663 26.9337 0.666626 26.0003 0.666626C25.067 0.666626 24.1337 1.06663 23.467 1.73329L18.8003 6.39996L24.267 11.8666C24.8003 11.6 25.3337 11.4666 26.0003 11.4666C28.267 11.4666 30.0003 13.2 30.0003 15.4666C30.0003 16.1333 29.867 16.6666 29.6003 17.2L34.9337 22.5333C35.467 22.2666 36.0003 22.1333 36.667 22.1333C38.9337 22.1333 40.667 23.8666 40.667 26.1333C40.667 28.4 38.9337 30.1333 36.667 30.1333C34.4003 30.1333 32.667 28.4 32.667 26.1333C32.667 25.4666 32.8003 24.9333 33.067 24.4L27.7337 19.0666C27.6003 19.0666 27.467 19.2 27.3337 19.2V33.0666C28.9337 33.6 30.0003 35.0666 30.0003 36.8C30.0003 39.0666 28.267 40.8 26.0003 40.8C23.7337 40.8 22.0003 39.0666 22.0003 36.8C22.0003 35.0666 23.067 33.6 24.667 33.0666V19.0666C23.067 18.5333 22.0003 17.0666 22.0003 15.3333C22.0003 14.6666 22.1337 14.1333 22.4003 13.6L16.9337 8.13329L1.73366 23.4666C1.06699 24.1333 0.666992 25.0666 0.666992 26C0.666992 26.9333 1.06699 27.8666 1.73366 28.5333L23.467 50.2666C24.1337 50.9333 25.067 51.3333 26.0003 51.3333C26.9337 51.3333 27.867 50.9333 28.5337 50.2666L50.267 28.5333C50.9337 27.8666 51.3337 26.9333 51.3337 26C51.3337 25.0666 50.9337 24.1333 50.267 23.4666Z" fill="#F4511E"/>
</svg>
