<svg width="64" height="64" viewBox="0 0 64 64" fill="none" xmlns="http://www.w3.org/2000/svg">
<path d="M62.6526 28.8L35.2 1.34737C34.3579 0.505264 33.1789 0 32 0C30.8211 0 29.6421 0.505264 28.8 1.34737L22.9053 7.24211L29.8105 14.1474C30.4842 13.8105 31.1579 13.6421 32 13.6421C34.8632 13.6421 37.0526 15.8316 37.0526 18.6947C37.0526 19.5368 36.8842 20.2105 36.5474 20.8842L43.2842 27.6211C43.9579 27.2842 44.6316 27.1158 45.4737 27.1158C48.3368 27.1158 50.5263 29.3053 50.5263 32.1684C50.5263 35.0316 48.3368 37.2211 45.4737 37.2211C42.6105 37.2211 40.4211 35.0316 40.4211 32.1684C40.4211 31.3263 40.5895 30.6526 40.9263 29.9789L34.1895 23.2421C34.0211 23.2421 33.8526 23.4105 33.6842 23.4105V40.9263C35.7053 41.6 37.0526 43.4526 37.0526 45.6421C37.0526 48.5053 34.8632 50.6947 32 50.6947C29.1368 50.6947 26.9474 48.5053 26.9474 45.6421C26.9474 43.4526 28.2947 41.6 30.3158 40.9263V23.2421C28.2947 22.5684 26.9474 20.7158 26.9474 18.5263C26.9474 17.6842 27.1158 17.0105 27.4526 16.3368L20.5474 9.43158L1.34737 28.8C0.505264 29.6421 0 30.8211 0 32C0 33.1789 0.505264 34.3579 1.34737 35.2L28.8 62.6526C29.6421 63.4947 30.8211 64 32 64C33.1789 64 34.3579 63.4947 35.2 62.6526L62.6526 35.2C63.4947 34.3579 64 33.1789 64 32C64 30.8211 63.4947 29.6421 62.6526 28.8Z" fill="#F4511E"/>
</svg>
