<svg width="57" height="64" viewBox="0 0 57 64" fill="none" xmlns="http://www.w3.org/2000/svg">
<g clip-path="url(#clip0_547_505)">
<path d="M28.7262 64C27.8682 64 27.0675 63.7668 26.3239 63.3586L18.7165 58.7517C17.5726 58.1102 18.1445 57.877 18.4878 57.7603C20.0321 57.2355 20.3181 57.1189 21.9196 56.1859C22.0912 56.0692 22.32 56.1275 22.4916 56.2442L28.3258 59.8014C28.5546 59.918 28.8406 59.918 29.0122 59.8014L51.8341 46.3307C52.0629 46.214 52.1773 45.9808 52.1773 45.6892V18.806C52.1773 18.5145 52.0629 18.2812 51.8341 18.1646L29.0122 4.75223C28.7834 4.63561 28.4973 4.63561 28.3258 4.75223L5.50384 18.1646C5.27505 18.2812 5.16065 18.5728 5.16065 18.806V45.6892C5.16065 45.9224 5.27505 46.214 5.50384 46.3307L11.7384 50.0045C15.1131 51.7539 17.2294 49.7129 17.2294 47.6719V21.1386C17.2294 20.7888 17.5154 20.4389 17.9158 20.4389H20.8329C21.1761 20.4389 21.5192 20.7305 21.5192 21.1386V47.6719C21.5192 52.2788 19.0597 54.9613 14.7699 54.9613C13.4544 54.9613 12.4248 54.9613 9.50767 53.5034L3.50192 50.0045C2.01478 49.1297 1.09961 47.4969 1.09961 45.7475V18.8644C1.09961 17.115 2.01478 15.4822 3.50192 14.6074L26.3239 1.13672C27.7538 0.320313 29.6986 0.320313 31.1285 1.13672L53.9504 14.6074C55.4376 15.4822 56.3528 17.115 56.3528 18.8644V45.7475C56.3528 47.4969 55.4376 49.1297 53.9504 50.0045L31.1285 63.4752C30.4421 63.7668 29.5842 64 28.7262 64Z" fill="#5FA04E"/>
<path d="M35.8187 45.5142C25.8091 45.5142 23.75 40.849 23.75 36.8836C23.75 36.5338 24.036 36.1839 24.4363 36.1839H27.4106C27.7538 36.1839 28.0398 36.4172 28.0398 36.767C28.4974 39.8577 29.813 41.3739 35.8759 41.3739C40.6805 41.3739 42.7397 40.2659 42.7397 37.6417C42.7397 36.1256 42.1677 35.0176 34.6747 34.2595C28.4402 33.618 24.5508 32.2185 24.5508 27.1451C24.5508 22.4216 28.4402 19.6225 34.9608 19.6225C42.2821 19.6225 45.8855 22.1883 46.3431 27.7865C46.3431 27.9615 46.2859 28.1364 46.1716 28.3114C46.0572 28.428 45.8855 28.5447 45.7139 28.5447H42.6825C42.3964 28.5447 42.1105 28.3114 42.0533 28.0198C41.3669 24.8125 39.5938 23.7628 34.9036 23.7628C29.6413 23.7628 29.0122 25.6289 29.0122 27.0284C29.0122 28.7196 29.7558 29.2445 36.8483 30.1775C43.8836 31.1105 47.2011 32.4517 47.2011 37.4668C47.2011 42.5985 43.0256 45.5142 35.8187 45.5142Z" fill="#5FA04E"/>
</g>
<defs>
<clipPath id="clip0_547_505">
<rect width="56.32" height="64" fill="white" transform="translate(0.466797)"/>
</clipPath>
</defs>
</svg>
