<svg width="70" height="64" viewBox="0 0 70 64" fill="none" xmlns="http://www.w3.org/2000/svg">
<path d="M34.7822 38.7725C38.4545 38.7725 41.4315 35.7404 41.4315 32C41.4315 28.2597 38.4545 25.2275 34.7822 25.2275C31.1098 25.2275 28.1328 28.2597 28.1328 32C28.1328 35.7404 31.1098 38.7725 34.7822 38.7725Z" fill="#5ED3F3"/>
<path d="M34.7819 47.2381C53.1436 47.2381 68.0287 40.4158 68.0287 32C68.0287 23.5842 53.1436 16.7619 34.7819 16.7619C16.4202 16.7619 1.53516 23.5842 1.53516 32C1.53516 40.4158 16.4202 47.2381 34.7819 47.2381Z" stroke="#5ED3F3" stroke-width="3"/>
<path d="M21.8253 39.6191C31.0062 55.8152 44.2496 65.5336 51.4053 61.3257C58.5611 57.1179 56.9194 40.5771 47.7386 24.381C38.5578 8.18481 25.3143 -1.5336 18.1586 2.67429C11.0028 6.88217 12.6445 23.4229 21.8253 39.6191Z" stroke="#5ED3F3" stroke-width="3"/>
<path d="M21.8256 24.381C12.6448 40.5771 11.0032 57.1179 18.1589 61.3257C25.3147 65.5336 38.5581 55.8152 47.7389 39.6191C56.9198 23.4229 58.5614 6.88217 51.4057 2.67429C44.2499 -1.5336 31.0065 8.18481 21.8256 24.381Z" stroke="#5ED3F3" stroke-width="3"/>
</svg>
