<svg width="64" height="64" viewBox="0 0 64 64" fill="none" xmlns="http://www.w3.org/2000/svg">
<path d="M53.1555 34.608C51.1049 34.6187 49.3289 35.1107 47.8409 35.8454C47.2969 34.7587 46.7449 33.8027 46.6529 33.092C46.5449 32.2627 46.4195 31.7667 46.5502 30.7787C46.6809 29.7907 47.2529 28.3907 47.2449 28.2854C47.2369 28.18 47.1169 27.6774 45.9342 27.668C44.7515 27.66 43.7395 27.896 43.6209 28.208C43.5022 28.52 43.2742 29.2227 43.1329 29.956C42.9262 31.028 40.7715 34.8534 39.5489 36.8534C39.1489 36.072 38.8089 35.384 38.7382 34.84C38.6302 34.0107 38.5049 33.5147 38.6355 32.5267C38.7662 31.5387 39.3382 30.1387 39.3302 30.0334C39.3222 29.928 39.2022 29.4254 38.0195 29.416C36.8369 29.408 35.8249 29.644 35.7062 29.956C35.5875 30.268 35.4595 30.9974 35.2182 31.704C34.9755 32.4094 32.1129 38.7894 31.3622 40.444C30.9795 41.2867 30.6475 41.964 30.4129 42.4254L30.4115 42.4227C30.4115 42.4227 30.3969 42.4534 30.3729 42.5054C30.1715 42.8987 30.0529 43.116 30.0529 43.116C30.0529 43.116 30.0542 43.1187 30.0569 43.124C29.8969 43.4134 29.7262 43.6814 29.6422 43.6814C29.5835 43.6814 29.4649 42.912 29.6675 41.856C30.0942 39.6427 31.1169 36.192 31.1075 36.072C31.1022 36.0107 31.2982 35.4094 30.4395 35.0947C29.6049 34.7894 29.3075 35.2987 29.2315 35.3C29.1582 35.3014 29.1035 35.48 29.1035 35.48C29.1035 35.48 30.0329 31.5987 27.3302 31.5987C25.6395 31.5987 23.2982 33.448 22.1449 35.124C21.4169 35.5214 19.8582 36.372 18.2062 37.28C17.5715 37.6294 16.9235 37.9854 16.3089 38.324C16.2675 38.2774 16.2249 38.232 16.1822 38.1854C12.9035 34.688 6.84486 32.2147 7.10086 27.512C7.19419 25.8027 7.78886 21.3014 18.7449 15.8427C27.7195 11.3707 34.9049 12.6014 36.1462 15.328C37.9195 19.2254 32.3062 26.4667 22.9862 27.512C19.4355 27.9107 17.5649 26.5334 17.0995 26.0214C16.6102 25.4814 16.5369 25.4574 16.3542 25.5587C16.0569 25.724 16.2449 26.2 16.3542 26.484C16.6329 27.208 17.7742 28.492 19.7209 29.132C21.4342 29.6947 25.6035 30.0027 30.6449 28.052C36.2929 25.868 40.7022 19.7907 39.4062 14.712C38.0889 9.5467 29.5235 7.84803 21.4169 10.728C16.5862 12.4427 11.3635 15.1334 7.60752 18.6454C3.14219 22.8214 2.43019 26.4574 2.72352 27.976C3.76619 33.3734 11.2049 36.888 14.1835 39.492C14.0369 39.5734 13.8982 39.6494 13.7729 39.7187C12.2795 40.4574 6.60886 43.4254 5.19019 46.56C3.58086 50.116 5.44619 52.668 6.68086 53.012C10.5062 54.076 14.4315 52.1614 16.5422 49.0147C18.6515 45.8694 18.3942 41.772 17.4262 39.9027C17.4142 39.88 17.4009 39.8574 17.3889 39.8334C17.7742 39.6054 18.1675 39.3734 18.5569 39.144C19.3169 38.6974 20.0635 38.2814 20.7102 37.9294C20.3475 38.9214 20.0822 40.112 19.9449 41.8307C19.7822 43.8494 20.6102 46.4587 21.6929 47.4854C22.1702 47.9374 22.7435 47.948 23.1062 47.948C24.3662 47.948 24.9409 46.9 25.5742 45.66C26.3502 44.14 27.0395 42.3694 27.0395 42.3694C27.0395 42.3694 26.1755 47.1507 28.5302 47.1507C29.3889 47.1507 30.2515 46.0374 30.6369 45.4707C30.6382 45.4774 30.6382 45.48 30.6382 45.48C30.6382 45.48 30.6609 45.4427 30.7049 45.3694C30.7942 45.2334 30.8449 45.1467 30.8449 45.1467C30.8449 45.1467 30.8462 45.1374 30.8489 45.1214C31.1942 44.5227 31.9595 43.1574 33.1062 40.9054C34.5889 37.996 36.0102 34.3507 36.0102 34.3507C36.0102 34.3507 36.1422 35.2414 36.5755 36.716C36.8302 37.5827 37.3715 38.5414 37.7995 39.4614C37.4555 39.9387 37.2449 40.212 37.2449 40.212C37.2449 40.212 37.2462 40.2174 37.2502 40.2267C36.9755 40.592 36.6675 40.9854 36.3449 41.3694C35.1742 42.7627 33.7809 44.3547 33.5942 44.8134C33.3742 45.3547 33.4262 45.752 33.8515 46.0734C34.1622 46.3067 34.7142 46.344 35.2915 46.3054C36.3435 46.2347 37.0822 45.9734 37.4475 45.8147C38.0169 45.6134 38.6795 45.2974 39.3009 44.84C40.4489 43.996 41.1409 42.7894 41.0742 41.1894C41.0369 40.308 40.7569 39.4347 40.4009 38.6107C40.5049 38.4614 40.6089 38.3094 40.7142 38.1574C42.5235 35.512 43.9275 32.6054 43.9275 32.6054C43.9275 32.6054 44.0595 33.496 44.4929 34.9707C44.7115 35.716 45.1449 36.5307 45.5342 37.328C43.8329 38.7107 42.7782 40.3174 42.4115 41.3707C41.7342 43.32 42.2649 44.2027 43.2595 44.404C43.7102 44.4947 44.3475 44.288 44.8262 44.0854C45.4222 43.888 46.1382 43.5587 46.8075 43.0667C47.9555 42.2227 49.0595 41.0414 48.9929 39.4427C48.9622 38.7147 48.7649 37.992 48.4969 37.2987C49.9395 36.6974 51.8062 36.364 54.1849 36.6414C59.2875 37.2374 60.2875 40.4227 60.0969 41.756C59.9049 43.0894 58.8355 43.8227 58.4769 44.044C58.1195 44.2654 58.0102 44.3427 58.0395 44.5067C58.0835 44.7454 58.2489 44.7374 58.5542 44.6854C58.9742 44.6147 61.2329 43.6014 61.3302 41.14C61.4515 38.012 58.4582 34.58 53.1555 34.608ZM13.8262 47.8667C12.1355 49.7107 9.77552 50.4067 8.76219 49.82C7.66886 49.1867 8.10219 46.472 10.1755 44.5147C11.4395 43.3227 13.0715 42.224 14.1542 41.548C14.4009 41.4 14.7622 41.1827 15.2022 40.9187C15.2755 40.8774 15.3169 40.8547 15.3169 40.8547L15.3155 40.852C15.4009 40.8014 15.4875 40.7494 15.5769 40.6947C16.3329 43.48 15.6009 45.932 13.8262 47.8667ZM26.1395 39.4974C25.5515 40.932 24.3195 44.604 23.5689 44.4067C22.9249 44.2374 22.5329 41.4467 23.4409 38.7C23.8969 37.3174 24.8729 35.6654 25.4462 35.024C26.3689 33.992 27.3849 33.6547 27.6315 34.0734C27.9449 34.6067 26.5089 38.5974 26.1395 39.4974ZM36.3115 44.3507C36.0622 44.4814 35.8329 44.5627 35.7275 44.5C35.6489 44.4534 35.8302 44.2814 35.8302 44.2814C35.8302 44.2814 37.1022 42.912 37.6035 42.2894C37.8955 41.9267 38.2329 41.496 38.6009 41.016C38.6035 41.064 38.6049 41.112 38.6049 41.1587C38.6022 42.7987 37.0182 43.9054 36.3115 44.3507ZM44.1475 42.564C43.9609 42.432 43.9929 42.004 44.6049 40.6694C44.8449 40.1454 45.3942 39.264 46.3462 38.4214C46.4569 38.768 46.5235 39.1 46.5222 39.4094C46.5102 41.4734 45.0382 42.244 44.1475 42.564Z" fill="#F06292"/>
</svg>
