<svg width="65" height="64" viewBox="0 0 65 64" fill="none" xmlns="http://www.w3.org/2000/svg">
<g clip-path="url(#clip0_547_492)">
<path d="M61.4365 0H3.43652C1.77967 0 0.436523 1.34315 0.436523 3V61C0.436523 62.6569 1.77967 64 3.43652 64H61.4365C63.0934 64 64.4365 62.6569 64.4365 61V3C64.4365 1.34315 63.0934 0 61.4365 0Z" fill="#3178C6"/>
<path fill-rule="evenodd" clip-rule="evenodd" d="M37.5676 49.734V56.747C38.7038 57.331 40.0475 57.7695 41.5989 58.0615C43.1502 58.354 44.7853 58.5 46.5041 58.5C48.1793 58.5 49.7706 58.3395 51.278 58.018C52.786 57.6965 54.1075 57.167 55.244 56.429C56.38 55.691 57.2795 54.727 57.9425 53.536C58.605 52.3455 58.9365 50.8735 58.9365 49.1203C58.9365 47.8493 58.747 46.7353 58.3685 45.7783C57.9895 44.8214 57.4435 43.9704 56.7295 43.2252C56.016 42.4801 55.16 41.8117 54.1625 41.22C53.1645 40.6283 52.0395 40.0694 50.7865 39.5435C49.8689 39.1636 49.0459 38.7947 48.3176 38.4368C47.5893 38.0788 46.9702 37.7136 46.4604 37.341C45.9506 36.9684 45.5573 36.574 45.2805 36.1576C45.0038 35.7413 44.8654 35.27 44.8654 34.7441C44.8654 34.2619 44.9892 33.8273 45.2368 33.4402C45.4845 33.053 45.8341 32.7206 46.2856 32.443C46.7372 32.1655 47.2907 31.95 47.9462 31.7966C48.6017 31.6431 49.33 31.5664 50.1311 31.5664C50.714 31.5664 51.329 31.6103 51.9775 31.6979C52.6255 31.7856 53.2775 31.9207 53.933 32.1034C54.5885 32.286 55.2255 32.5161 55.845 32.7937C56.464 33.0713 57.0355 33.3927 57.56 33.7579V27.2054C56.4965 26.7963 55.335 26.4931 54.075 26.2959C52.815 26.0986 51.3695 26 49.7378 26C48.0773 26 46.5041 26.1789 45.0183 26.5369C43.5326 26.8948 42.2252 27.4537 41.0963 28.2134C39.9674 28.9731 39.0752 29.941 38.4198 31.1171C37.7643 32.2932 37.4365 33.6995 37.4365 35.3358C37.4365 37.4251 38.0374 39.2074 39.2391 40.683C40.4409 42.1587 42.2653 43.4078 44.7124 44.4305C45.6738 44.825 46.5697 45.2122 47.3999 45.592C48.2302 45.9719 48.9476 46.3664 49.5521 46.7755C50.1566 47.1846 50.6335 47.6302 50.983 48.1123C51.333 48.5944 51.5075 49.1423 51.5075 49.7559C51.5075 50.209 51.3985 50.629 51.18 51.016C50.9615 51.403 50.63 51.739 50.1858 52.024C49.7415 52.309 49.188 52.532 48.5252 52.6925C47.8624 52.853 47.0868 52.9335 46.1982 52.9335C44.6833 52.9335 43.183 52.667 41.6972 52.1335C40.2114 51.6005 38.8349 50.8005 37.5676 49.734ZM25.7878 32.2772H34.9365V26.5H9.43652V32.2772H18.5405V58H25.7878V32.2772Z" fill="white"/>
</g>
<defs>
<clipPath id="clip0_547_492">
<rect width="64" height="64" fill="white" transform="translate(0.436523)"/>
</clipPath>
</defs>
</svg>
