<svg width="33" height="33" viewBox="0 0 33 33" fill="none" xmlns="http://www.w3.org/2000/svg">
<path d="M16.24 0C14.1073 0 11.9955 0.430489 10.0252 1.26689C8.05489 2.10329 6.26461 3.32921 4.75659 4.87468C1.71099 7.99588 0 12.2291 0 16.6432C0 23.9995 4.66088 30.2407 11.1082 32.4542C11.9202 32.5874 12.18 32.0714 12.18 31.6221V28.8094C7.68152 29.808 6.72336 26.5792 6.72336 26.5792C5.97632 24.6486 4.92072 24.1326 4.92072 24.1326C3.44288 23.1007 5.0344 23.134 5.0344 23.134C6.6584 23.2505 7.51912 24.8483 7.51912 24.8483C8.932 27.378 11.3193 26.6291 12.245 26.2297C12.3911 25.1479 12.8134 24.4156 13.2681 23.9995C9.6628 23.5834 5.87888 22.1521 5.87888 15.811C5.87888 13.9636 6.496 12.4824 7.5516 11.3007C7.3892 10.8846 6.8208 9.15375 7.714 6.90692C7.714 6.90692 9.07816 6.45756 12.18 8.60453C13.463 8.23838 14.8596 8.0553 16.24 8.0553C17.6204 8.0553 19.017 8.23838 20.3 8.60453C23.4018 6.45756 24.766 6.90692 24.766 6.90692C25.6592 9.15375 25.0908 10.8846 24.9284 11.3007C25.984 12.4824 26.6011 13.9636 26.6011 15.811C26.6011 22.1687 22.801 23.5668 19.1794 23.9828C19.7641 24.4988 20.3 25.514 20.3 27.0618V31.6221C20.3 32.0714 20.5598 32.604 21.3881 32.4542C27.8354 30.224 32.48 23.9995 32.48 16.6432C32.48 14.4576 32.0599 12.2934 31.2438 10.2741C30.4277 8.25487 29.2314 6.42014 27.7234 4.87468C26.2154 3.32921 24.4251 2.10329 22.4548 1.26689C20.4845 0.430489 18.3727 0 16.24 0Z" fill="white"/>
</svg>
