<svg width="60" height="60" viewBox="0 0 60 60" fill="none" xmlns="http://www.w3.org/2000/svg">
<circle cx="30" cy="30" r="30" fill="#474747"/>
<path d="M22.7083 25.8335V38.3335H37.2917V25.8335H22.7083ZM22.7083 23.7502H37.2917V21.6668H22.7083V23.7502ZM38.3333 40.4168H21.6667C21.3904 40.4168 21.1254 40.3071 20.9301 40.1117C20.7347 39.9164 20.625 39.6514 20.625 39.3752V20.6252C20.625 20.3489 20.7347 20.0839 20.9301 19.8886C21.1254 19.6932 21.3904 19.5835 21.6667 19.5835H38.3333C38.6096 19.5835 38.8746 19.6932 39.0699 19.8886C39.2653 20.0839 39.375 20.3489 39.375 20.6252V39.3752C39.375 39.6514 39.2653 39.9164 39.0699 40.1117C38.8746 40.3071 38.6096 40.4168 38.3333 40.4168ZM24.7917 27.9168H28.9583V32.0835H24.7917V27.9168ZM24.7917 34.1668H35.2083V36.2502H24.7917V34.1668ZM31.0417 28.9585H35.2083V31.0418H31.0417V28.9585Z" fill="#FD562A"/>
</svg>
