<svg width="60" height="60" viewBox="0 0 60 60" fill="none" xmlns="http://www.w3.org/2000/svg">
<circle cx="30" cy="30" r="30" fill="#474747"/>
<path d="M18.75 18.75H41.25C41.5815 18.75 41.8995 18.8817 42.1339 19.1161C42.3683 19.3505 42.5 19.6685 42.5 20V40C42.5 40.3315 42.3683 40.6495 42.1339 40.8839C41.8995 41.1183 41.5815 41.25 41.25 41.25H18.75C18.4185 41.25 18.1005 41.1183 17.8661 40.8839C17.6317 40.6495 17.5 40.3315 17.5 40V20C17.5 19.6685 17.6317 19.3505 17.8661 19.1161C18.1005 18.8817 18.4185 18.75 18.75 18.75ZM20 21.25V38.75H40V21.25H20ZM40 30L35.58 34.42L33.8125 32.6513L36.465 30L33.8125 27.3487L35.58 25.58L40 30ZM23.535 30L26.1875 32.6513L24.42 34.42L20 30L24.42 25.58L26.1875 27.35L23.535 30ZM29.055 36.25H26.395L30.945 23.75H33.605L29.055 36.25Z" fill="#FD562A"/>
</svg>
