<svg width="60" height="60" viewBox="0 0 60 60" fill="none" xmlns="http://www.w3.org/2000/svg">
<path d="M13.8467 46.1533L34.8733 34.8733L46.1533 13.8467L25.1267 25.1267L13.8467 46.1533ZM30 33.3333C29.0556 33.3333 28.2633 33.0133 27.6233 32.3733C26.9833 31.7333 26.6644 30.9422 26.6667 30C26.6667 29.0556 26.9867 28.2633 27.6267 27.6233C28.2667 26.9833 29.0578 26.6644 30 26.6667C30.9444 26.6667 31.7367 26.9867 32.3767 27.6267C33.0167 28.2667 33.3356 29.0578 33.3333 30C33.3333 30.9444 33.0133 31.7367 32.3733 32.3767C31.7333 33.0167 30.9422 33.3356 30 33.3333ZM30.01 60C25.8633 60 21.9633 59.2133 18.31 57.64C14.6589 56.0644 11.4822 53.9267 8.78 51.2267C6.07778 48.5289 3.93889 45.3556 2.36333 41.7067C0.787778 38.0578 0 34.1589 0 30.01C0 25.8633 0.786666 21.9633 2.36 18.31C3.93556 14.6589 6.07333 11.4822 8.77333 8.78C11.4711 6.07778 14.6444 3.93889 18.2933 2.36333C21.9422 0.787778 25.8411 0 29.99 0C34.1367 0 38.0367 0.786666 41.69 2.36C45.3411 3.93556 48.5178 6.07333 51.22 8.77333C53.9222 11.4711 56.0611 14.6444 57.6367 18.2933C59.2122 21.9422 60 25.8411 60 29.99C60 34.1367 59.2133 38.0367 57.64 41.69C56.0644 45.3411 53.9267 48.5178 51.2267 51.22C48.5289 53.9222 45.3556 56.0611 41.7067 57.6367C38.0578 59.2122 34.1589 60 30.01 60ZM30 56.6667C37.4444 56.6667 43.75 54.0833 48.9167 48.9167C54.0833 43.75 56.6667 37.4444 56.6667 30C56.6667 22.5556 54.0833 16.25 48.9167 11.0833C43.75 5.91667 37.4444 3.33333 30 3.33333C22.5556 3.33333 16.25 5.91667 11.0833 11.0833C5.91667 16.25 3.33333 22.5556 3.33333 30C3.33333 37.4444 5.91667 43.75 11.0833 48.9167C16.25 54.0833 22.5556 56.6667 30 56.6667Z" fill="#FD562A"/>
</svg>
