<svg width="60" height="60" viewBox="0 0 60 60" fill="none" xmlns="http://www.w3.org/2000/svg">
<path d="M57.4516 27.1532C55.7971 24.223 53.3918 21.593 50.3863 19.4277L47.9062 17.6371C47.822 17.578 47.7206 17.5361 47.611 17.5149C47.5014 17.4938 47.3869 17.4942 47.2775 17.5161C47.1681 17.5379 47.0672 17.5806 46.9836 17.6403C46.9001 17.7 46.8364 17.7749 46.7982 17.8584L45.6903 20.3598C45 21.9291 43.7301 23.5319 41.9318 25.1078C41.8125 25.2084 41.6761 25.2352 41.5823 25.2419C41.4886 25.2486 41.3437 25.2352 41.2159 25.1413C41.0965 25.0609 41.0369 24.9402 41.0454 24.8194C41.3608 20.7823 39.8267 16.2288 36.4687 11.273C33.6903 7.1554 29.8295 3.94315 25.0057 1.70329L21.4858 0.0736884C21.0255 -0.140909 20.4375 0.14075 20.463 0.563238L20.6505 3.7822C20.7784 5.98182 20.4545 7.92661 19.6875 9.5428C18.75 11.5211 17.4034 13.3586 15.6818 15.0083C14.4837 16.1548 13.1258 17.1918 11.6335 18.0999C8.03953 20.2738 5.11715 23.0593 3.08522 26.2479C1.0583 29.4642 0.00247296 33.0054 0 36.5955C0 39.7608 0.792612 42.8255 2.36079 45.7159C3.87499 48.4987 6.06015 51.0243 8.79545 53.153C11.5568 55.299 14.7613 56.9889 18.3324 58.1625C22.0312 59.383 25.9517 60 30 60C34.0483 60 37.9687 59.383 41.6676 58.1692C45.2298 57.0025 48.4691 55.301 51.2045 53.1597C53.9659 51.0137 56.1306 48.5056 57.6391 45.7226C59.205 42.8401 60.0082 39.7369 59.9999 36.6022C59.9999 33.3296 59.1477 30.1509 57.4516 27.1532ZM47.1306 49.9072C42.5539 53.4749 36.4772 55.4331 30 55.4331C23.5227 55.4331 17.446 53.4749 12.8693 49.9072C8.30965 46.3462 5.79545 41.6251 5.79545 36.6022C5.79545 33.685 6.63068 30.8885 8.27556 28.2865C9.87783 25.7449 12.2642 23.4715 15.1619 21.7212C17.01 20.6093 18.6862 19.3309 20.1562 17.9121C22.2869 15.8667 23.9574 13.5866 25.1165 11.1389C25.5919 10.1292 25.9374 9.08448 26.1477 8.0205C28.2017 9.50927 29.9233 11.3065 31.3636 13.4123C34.2102 17.6103 35.5227 21.3457 35.267 24.5244C35.2059 25.273 35.3613 26.0228 35.7215 26.7174C36.0817 27.412 36.6373 28.0333 37.3466 28.5347C37.9612 28.9715 38.68 29.308 39.4613 29.5244C40.2426 29.7408 41.0708 29.833 41.8977 29.7954C43.5767 29.7284 45.1193 29.1449 46.2443 28.1591C47.3778 27.1599 48.3579 26.1406 49.1761 25.1011C50.3693 26.3015 51.3664 27.6092 52.159 29.0175C53.5141 31.4183 54.2045 33.9734 54.2045 36.6022C54.2045 41.6251 51.6903 46.353 47.1306 49.9072Z" fill="#FD562A"/>
</svg>
